<svg id="visual" viewBox="0 0 900 600" width="900" height="600" xmlns="http://www.w3.org/2000/svg" xmlns:xlink="http://www.w3.org/1999/xlink" version="1.1"><path d="M0 356L21.5 366.3C43 376.7 86 397.3 128.8 398.5C171.7 399.7 214.3 381.3 257.2 384.5C300 387.7 343 412.3 385.8 420.3C428.7 428.3 471.3 419.7 514.2 412.7C557 405.7 600 400.3 642.8 388.7C685.7 377 728.3 359 771.2 361C814 363 857 385 878.5 396L900 407L900 601L878.5 601C857 601 814 601 771.2 601C728.3 601 685.7 601 642.8 601C600 601 557 601 514.2 601C471.3 601 428.7 601 385.8 601C343 601 300 601 257.2 601C214.3 601 171.7 601 128.8 601C86 601 43 601 21.5 601L0 601Z" fill="#0f3040" stroke-linecap="round" stroke-linejoin="miter"></path></svg>